<svg xmlns="http://www.w3.org/2000/svg" version="1.1" xmlns:xlink="http://www.w3.org/1999/xlink" viewBox="0 0 9.07914287109375 9.399980521886059"><g transform="matrix(0.8571428571428571,0,0,0.8571428571428571,1.2970204101562501,7.150471708101787)"><g transform="matrix(1,0,0,1,0,0)" clip-path="url(#SvgjsClipPath54798)"><g clip-path="url(#SvgjsClipPath5479653bf073a-c742-41ec-86dd-d8589410cc55)"><path d=" M 3.3129884954330406 -1.5629290140233696 C 3.3129884954330406 -1.494770355736624 3.3684591225978413 -1.4392771520039895 3.435037421136302 -1.4392771520039895 C 3.501615719674763 -1.4392771520039895 3.558689283155682 -1.494770355736624 3.558689283155682 -1.5629290140233696 C 3.558689283155682 -1.631087672310115 3.5032186559908807 -1.6849779397266307 3.435037421136302 -1.6849779397266307 C 3.3668561862817237 -1.6849779397266307 3.3129884954330406 -1.62950731256183 3.3129884954330406 -1.5629290140233696 Z" fill="url(#gradient-89c10f97-95af-4ed1-89f4-e35db5bf4d01_0)" transform="matrix(1,0,0,1,0,0)" fill-rule="nonzero"></path></g><g clip-path="url(#SvgjsClipPath5479653bf073a-c742-41ec-86dd-d8589410cc55)"><path d=" M 3.558689283155682 -5.792174889544332 C 3.558689283155682 -5.860333547831077 3.5032186559908807 -5.915804174995879 3.4350374211363026 -5.915804174995879 C 3.366856186281724 -5.915804174995879 3.312988495433041 -5.860333547831077 3.312988495433041 -5.792174889544332 C 3.312988495433041 -5.724016231257586 3.368459122597842 -5.670103387273237 3.4350374211363026 -5.670103387273237 C 3.5016157196747635 -5.670103387273237 3.558689283155682 -5.725596591005871 3.558689283155682 -5.792174889544332 Z" fill="url(#gradient-89c10f97-95af-4ed1-89f4-e35db5bf4d01_1)" transform="matrix(1,0,0,1,0,0)" fill-rule="nonzero"></path></g><g clip-path="url(#SvgjsClipPath5479653bf073a-c742-41ec-86dd-d8589410cc55)"><path d=" M 4.007285685990275 -1.2601546628198097 C 4.007285685990275 -1.1935763642813502 4.0627563131550755 -1.1381057371165495 4.130914971441822 -1.1381057371165495 C 4.199073629728567 -1.1381057371165495 4.252986473712916 -1.1935763642813502 4.252986473712916 -1.2601546628198097 C 4.252986473712916 -1.326732961358271 4.197515846548114 -1.3838065248391898 4.130914971441822 -1.3838065248391898 C 4.0643140963355275 -1.3838065248391898 4.007285685990275 -1.328313321106556 4.007285685990275 -1.2601546628198097 Z" fill="url(#gradient-89c10f97-95af-4ed1-89f4-e35db5bf4d01_2)" transform="matrix(1,0,0,1,0,0)" fill-rule="nonzero"></path></g><g clip-path="url(#SvgjsClipPath5479653bf073a-c742-41ec-86dd-d8589410cc55)"><path d=" M 1.818171362665992 -3.9977441250702936 C 1.7515930641275315 -3.9977441250702936 1.6961224369627306 -3.942273497905493 1.6961224369627306 -3.874114839618747 C 1.6961224369627306 -3.8059561813320015 1.7516156406953642 -3.752043337347653 1.818171362665992 -3.752043337347653 C 1.88472708463662 -3.752043337347653 1.9418232246853715 -3.8059336047641685 1.9418232246853715 -3.874114839618747 C 1.9418232246853715 -3.942296074473326 1.8863525975205702 -3.9977441250702936 1.818171362665992 -3.9977441250702936 Z" fill="url(#gradient-89c10f97-95af-4ed1-89f4-e35db5bf4d01_3)" transform="matrix(1,0,0,1,0,0)" fill-rule="nonzero"></path></g><g clip-path="url(#SvgjsClipPath5479653bf073a-c742-41ec-86dd-d8589410cc55)"><path d=" M 1.5169773712107173 -3.3018665747647744 C 1.4488187129239716 -3.3018665747647744 1.3949284455074555 -3.2463959475999737 1.3949284455074555 -3.179817649061513 C 1.3949284455074555 -3.113239350523052 1.4488187129239716 -3.0561657870421337 1.5169773712107173 -3.0561657870421337 C 1.5851360294974632 -3.0561657870421337 1.6390488734818118 -3.1116364142069344 1.6390488734818118 -3.179817649061513 C 1.6390488734818118 -3.247998883916092 1.5851586060652958 -3.3018665747647744 1.5169773712107173 -3.3018665747647744 Z" fill="url(#gradient-89c10f97-95af-4ed1-89f4-e35db5bf4d01_4)" transform="matrix(1,0,0,1,0,0)" fill-rule="nonzero"></path></g><g clip-path="url(#SvgjsClipPath5479653bf073a-c742-41ec-86dd-d8589410cc55)"><path d=" M 4.252986473712916 -5.490980898089057 C 4.252986473712916 -5.559139556375802 4.197515846548116 -5.614632760108436 4.130914971441822 -5.614632760108436 C 4.064314096335528 -5.614632760108436 4.007285685990276 -5.559139556375802 4.007285685990276 -5.490980898089057 C 4.007285685990276 -5.422822239802311 4.062756313155076 -5.368931972385795 4.130914971441822 -5.368931972385795 C 4.199073629728567 -5.368931972385795 4.252986473712916 -5.422822239802311 4.252986473712916 -5.490980898089057 Z" fill="url(#gradient-89c10f97-95af-4ed1-89f4-e35db5bf4d01_5)" transform="matrix(1,0,0,1,0,0)" fill-rule="nonzero"></path></g><g clip-path="url(#SvgjsClipPath5479653bf073a-c742-41ec-86dd-d8589410cc55)"><path d=" M 6.389790889368968 -4.400374635797627 L 5.527456304433381 -4.633387392398324 C 5.216757577920563 -4.717394801303585 4.972659726514039 -4.959934869529656 4.888629741040947 -5.270633596042472 L 4.6571973441885355 -6.13296818097806 C 4.416260212278582 -7.02539733083456 3.1496921802995423 -7.02539733083456 2.908755048389588 -6.13296818097806 L 2.6757422917888922 -5.270633596042472 C 2.593315242631917 -4.959934869529656 2.3491948146575607 -4.717394801303585 2.0384960881447434 -4.633387392398324 L 1.1761615032091561 -4.400374635797627 C 0.28370977678482445 -4.159437503887675 0.28370977678482445 -2.89444983165692 1.1761615032091561 -2.6535126997469662 L 2.0384960881447434 -2.42049994314627 C 2.3491948146575607 -2.3364925342410094 2.593315242631917 -2.0939524660149385 2.6757422917888922 -1.7816733797538369 L 2.908755048389588 -0.9193387948182492 C 3.1496921802995423 -0.026887068393917524 4.416260212278582 -0.026887068393917524 4.6571973441885355 -0.9193387948182492 L 4.888629741040947 -1.7816733797538369 C 4.972637149946207 -2.0939524660149385 5.216757577920563 -2.3364925342410103 5.527456304433381 -2.420499943146271 L 6.389790889368968 -2.6535126997469662 C 7.2822426157933 -2.894449831656921 7.2822426157933 -4.159437503887675 6.389790889368968 -4.400374635797629 Z M 6.048997597935239 -3.5935332545946737 C 5.920604656671005 -3.5935332545946737 5.8143819050184256 -3.6775406634999346 5.7811040440331105 -3.7948485099583418 L 4.926693834406781 -3.7948485099583418 C 4.928296770722898 -3.7853211983329667 4.928296770722898 -3.7758164632754245 4.928296770722898 -3.7663117282178824 L 4.928296770722898 -3.2875981838945445 C 4.928296770722898 -3.2780934488370024 4.928296770722898 -3.2685887137794603 4.926693834406781 -3.259061402154085 L 5.478329692829551 -3.259061402154085 C 5.511607553814865 -3.376369248612492 5.61941066521573 -3.4603766575177524 5.747803606479964 -3.4603766575177524 C 5.901572609988088 -3.4603766575177524 6.028385191504038 -3.3351444357500877 6.028385191504038 -3.1798176490615124 C 6.028385191504038 -3.0244908623729367 5.901572609988088 -2.897655704289155 5.747803606479964 -2.897655704289155 C 5.619410665215731 -2.897655704289155 5.511607553814866 -2.9832434729427004 5.478329692829551 -3.100551319401107 L 4.907661787723864 -3.100551319401107 C 4.83473947362443 -2.7502307163420037 4.558921544413045 -2.4744127871306185 4.210181301102226 -2.4030708327794708 L 4.210181301102226 -1.5296285764702233 C 4.327489147560634 -1.49635071548491 4.4114965564658934 -1.388547604084045 4.4114965564658934 -1.2601546628198097 C 4.4114965564658934 -1.1063856593116856 4.286264334698229 -0.9795956543635693 4.130914971441822 -0.9795956543635693 C 3.975565608185413 -0.9795956543635693 3.8487530266694634 -1.1064082358795186 3.8487530266694634 -1.2601546628198097 C 3.8487530266694634 -1.3885476040840432 3.934340795323009 -1.4963507154849083 4.051648641781416 -1.5296285764702233 L 4.051648641781416 -2.3840387860965535 C 4.042143906723874 -2.3824358497804354 4.0326391716663315 -2.3824358497804354 4.023111860040957 -2.3824358497804354 L 3.5428179559693342 -2.3824358497804354 C 3.533313220911792 -2.3824358497804354 3.52380848585425 -2.3824358497804354 3.514281174228875 -2.3840387860965535 L 3.514281174228875 -1.8307999913576651 C 3.631589020687282 -1.7975221303723519 3.7171767893408276 -1.6912993787197719 3.7171767893408276 -1.5629064374555375 C 3.7171767893408276 -1.4075570741991292 3.590364207824878 -1.28074449268318 3.4350148445684696 -1.28074449268318 C 3.2796654813120614 -1.28074449268318 3.154433259544397 -1.4075570741991292 3.154433259544397 -1.5629064374555375 C 3.154433259544397 -1.6912993787197719 3.238440668449657 -1.7975221303723519 3.3557485149080644 -1.8307999913576651 L 3.3557485149080644 -2.4030482562116378 C 3.007008271597246 -2.4759705703110706 2.7311903423858603 -2.7502081397741707 2.658268028286427 -3.100528742833274 L 1.7848257719771798 -3.100528742833274 C 1.7515479109918657 -2.9832208963748674 1.6453251593392861 -2.8976331277213223 1.516932218075052 -2.8976331277213223 C 1.3615828548186437 -2.8976331277213223 1.236373209618812 -3.0244457092372716 1.236373209618812 -3.17979507249368 C 1.236373209618812 -3.3351444357500877 1.3616054313864763 -3.46035408094992 1.516932218075052 -3.46035408094992 C 1.6453251593392861 -3.46035408094992 1.7515479109918657 -3.3763466720446598 1.7848257719771798 -3.2590388255862526 L 2.6392359816035103 -3.2590388255862526 C 2.637655621855225 -3.2685435606437947 2.637655621855225 -3.278048295701337 2.637655621855225 -3.287575607326712 L 2.637655621855225 -3.7662891516500494 C 2.637655621855225 -3.7757938867075915 2.637655621855225 -3.785298621765134 2.6392359816035103 -3.7948259333905088 L 2.0876001231807395 -3.7948259333905088 C 2.0543222621954254 -3.6775180869321016 1.9465191507945607 -3.5935106780268415 1.818126209530326 -3.5935106780268415 C 1.662776846273918 -3.5935106780268415 1.5375446245062536 -3.718742899794506 1.5375446245062536 -3.874092263050914 C 1.5375446245062536 -4.029441626307323 1.662776846273918 -4.156254207823272 1.818126209530326 -4.156254207823272 C 1.9465191507945607 -4.156254207823272 2.0543222621954254 -4.070666439169726 2.0876001231807395 -3.9533585927113193 L 2.6582680282864266 -3.9533585927113193 C 2.7311903423858603 -4.303679195770423 3.007008271597245 -4.577916765233523 3.3557485149080635 -4.650839079332956 L 3.3557485149080635 -5.524281335642203 C 3.2384406684496567 -5.55758177319535 3.1544332595443962 -5.665362308028382 3.1544332595443962 -5.792174889544331 C 3.1544332595443962 -5.94752425280074 3.2796654813120605 -6.074336834316689 3.435014844568469 -6.074336834316689 C 3.590364207824877 -6.074336834316689 3.7171767893408267 -5.94752425280074 3.7171767893408267 -5.792174889544331 C 3.7171767893408267 -5.665362308028382 3.631589020687281 -5.55758177319535 3.5142811742288744 -5.524281335642203 L 3.5142811742288744 -4.669871126015874 C 3.523808485854249 -4.671474062331991 3.5333132209117912 -4.671474062331991 3.5428179559693334 -4.671474062331991 L 4.023111860040956 -4.671474062331991 C 4.0326165950984985 -4.671474062331991 4.042121330156041 -4.671474062331991 4.051648641781416 -4.669871126015874 L 4.051648641781416 -5.223109920754761 C 3.9343407953230085 -5.2563877817400755 3.848753026669463 -5.362610533392655 3.848753026669463 -5.491003474656889 C 3.848753026669463 -5.646352837913298 3.9755656081854127 -5.773165419429247 4.13091497144182 -5.773165419429247 C 4.286264334698229 -5.773165419429247 4.4114965564658934 -5.646352837913298 4.4114965564658934 -5.491003474656889 C 4.4114965564658934 -5.362610533392655 4.327489147560634 -5.2564103583079085 4.210181301102226 -5.223109920754761 L 4.210181301102226 -4.650861655900789 C 4.558921544413045 -4.579519701549641 4.83473947362443 -4.303701772338256 4.907661787723863 -3.9533811692791523 L 5.7811040440331105 -3.9533811692791523 C 5.814381905018424 -4.070689015737559 5.920604656671004 -4.156276784391104 6.048997597935238 -4.156276784391104 C 6.204346961191646 -4.156276784391104 6.329556606391478 -4.029464202875156 6.329556606391478 -3.8741148396187466 C 6.329556606391478 -3.718765476362338 6.204324384623813 -3.5935332545946737 6.048997597935238 -3.5935332545946737 Z" fill="url(#gradient-89c10f97-95af-4ed1-89f4-e35db5bf4d01_6)" transform="matrix(1,0,0,1,0,0)" fill-rule="nonzero"></path></g><g clip-path="url(#SvgjsClipPath5479653bf073a-c742-41ec-86dd-d8589410cc55)"><path d=" M 6.048997597935239 -3.9977441250702936 C 5.980838939648493 -3.9977441250702936 5.926926095664144 -3.942273497905493 5.926926095664144 -3.874114839618747 C 5.926926095664144 -3.8059561813320015 5.98081636308066 -3.752043337347653 6.048997597935239 -3.752043337347653 C 6.1171788327898176 -3.752043337347653 6.1710465236385 -3.8059336047641685 6.1710465236385 -3.874114839618747 C 6.1710465236385 -3.942296074473326 6.117156256221985 -3.9977441250702936 6.048997597935239 -3.9977441250702936 Z" fill="url(#gradient-89c10f97-95af-4ed1-89f4-e35db5bf4d01_7)" transform="matrix(1,0,0,1,0,0)" fill-rule="nonzero"></path></g><g clip-path="url(#SvgjsClipPath5479653bf073a-c742-41ec-86dd-d8589410cc55)"><path d=" M 5.747803606479964 -3.056165787042133 C 5.8143819050184256 -3.056165787042133 5.869875108751059 -3.111636414206934 5.869875108751059 -3.1798176490615124 C 5.869875108751059 -3.247998883916091 5.8143819050184256 -3.301866574764774 5.747803606479964 -3.301866574764774 C 5.681225307941504 -3.301866574764774 5.624174321028417 -3.2463959475999733 5.624174321028417 -3.1798176490615124 C 5.624174321028417 -3.1132393505230516 5.679644948193218 -3.056165787042133 5.747803606479964 -3.056165787042133 Z" fill="url(#gradient-89c10f97-95af-4ed1-89f4-e35db5bf4d01_8)" transform="matrix(1,0,0,1,0,0)" fill-rule="nonzero"></path></g><g clip-path="url(#SvgjsClipPath5479653bf073a-c742-41ec-86dd-d8589410cc55)"><path d=" M 3.195025928507487 -4.083580235969999 L 4.370971617206303 -4.083580235969999 L 4.370971617206303 -2.9687267398263115 L 3.195025928507487 -2.9687267398263115 Z" fill="url(#gradient-89c10f97-95af-4ed1-89f4-e35db5bf4d01_9)" transform="matrix(1,0,0,1,0,0)" fill-rule="nonzero"></path></g><g clip-path="url(#SvgjsClipPath5479653bf073a-c742-41ec-86dd-d8589410cc55)"><path d=" M 3.042047104873506 -2.8223176974316293 L 4.5239730174081165 -2.8223176974316293 L 4.5239730174081165 -4.230011854932512 L 3.042047104873506 -4.230011854932512 L 3.042047104873506 -2.8223176974316293 Z M 3.094650507923561 -4.177408451882458 L 4.471369614358061 -4.177408451882458 L 4.471369614358061 -2.8749211004816844 L 3.094650507923561 -2.8749211004816844 L 3.094650507923561 -4.177408451882458 Z" fill="url(#gradient-89c10f97-95af-4ed1-89f4-e35db5bf4d01_10)" transform="matrix(1,0,0,1,0,0)" fill-rule="nonzero"></path></g></g><g><path d=" M 0.801 0.016499999999999737 L 0.801 0.25049999999999983 L 0.378 0.25049999999999983 L 0.378 0.4364999999999998 L 0.6900000000000001 0.4364999999999998 L 0.6900000000000001 0.6599999999999998 L 0.378 0.6599999999999998 L 0.378 1.0739999999999998 L 0.084 1.0739999999999998 L 0.084 0.016499999999999737 L 0.801 0.016499999999999737 M 1.222461181640625 0.8489999999999999 L 1.550961181640625 0.8489999999999999 L 1.550961181640625 1.0739999999999998 L 0.928461181640625 1.0739999999999998 L 0.928461181640625 0.016499999999999737 L 1.222461181640625 0.016499999999999737 L 1.222461181640625 0.8489999999999999 M 2.3370029296875 0.9014999999999999 L 1.9620029296875 0.9014999999999999 L 1.9050029296874997 1.0739999999999998 L 1.5960029296874998 1.0739999999999998 L 1.9815029296874997 0.016499999999999737 L 2.3205029296874997 0.016499999999999737 L 2.7045029296875 1.0739999999999998 L 2.3940029296875 1.0739999999999998 L 2.3370029296875 0.9014999999999999 M 2.2635029296874998 0.6764999999999999 L 2.1495029296875 0.3344999999999998 L 2.0370029296874996 0.6764999999999999 L 2.2635029296874998 0.6764999999999999 M 2.89951025390625 0.9967499999999998 Q 2.78101025390625 0.9089999999999998 2.77201025390625 0.7454999999999998 L 3.08551025390625 0.7454999999999998 Q 3.0900102539062497 0.8009999999999998 3.11851025390625 0.8264999999999998 Q 3.1470102539062497 0.8519999999999999 3.19201025390625 0.8519999999999999 Q 3.23251025390625 0.8519999999999999 3.25876025390625 0.8317499999999999 Q 3.28501025390625 0.8114999999999999 3.28501025390625 0.7754999999999999 Q 3.28501025390625 0.7289999999999999 3.2415102539062497 0.7034999999999998 Q 3.19801025390625 0.6779999999999998 3.1005102539062497 0.6464999999999999 Q 2.9970102539062498 0.6119999999999999 2.93326025390625 0.5797499999999998 Q 2.86951025390625 0.5474999999999999 2.82226025390625 0.48524999999999985 Q 2.77501025390625 0.4229999999999998 2.77501025390625 0.3224999999999998 Q 2.77501025390625 0.2204999999999998 2.82601025390625 0.14774999999999983 Q 2.87701025390625 0.07499999999999984 2.96701025390625 0.03749999999999987 Q 3.05701025390625 -2.220446049250313e-16 3.1710102539062497 -2.220446049250313e-16 Q 3.35551025390625 -2.220446049250313e-16 3.4657602539062498 0.08624999999999983 Q 3.57601025390625 0.17249999999999988 3.5835102539062498 0.3284999999999998 L 3.2640102539062497 0.3284999999999998 Q 3.26251025390625 0.28049999999999986 3.23476025390625 0.25649999999999984 Q 3.2070102539062497 0.23249999999999982 3.16351025390625 0.23249999999999982 Q 3.13051025390625 0.23249999999999982 3.10951025390625 0.2519999999999998 Q 3.08851025390625 0.27149999999999985 3.08851025390625 0.3074999999999998 Q 3.08851025390625 0.3374999999999998 3.11176025390625 0.35924999999999985 Q 3.13501025390625 0.3809999999999998 3.16951025390625 0.3967499999999998 Q 3.20401025390625 0.41249999999999987 3.27151025390625 0.4364999999999998 Q 3.3720102539062498 0.47099999999999986 3.43726025390625 0.5047499999999998 Q 3.50251025390625 0.5384999999999999 3.54976025390625 0.5992499999999998 Q 3.59701025390625 0.6599999999999998 3.59701025390625 0.7529999999999999 Q 3.59701025390625 0.8474999999999998 3.54976025390625 0.9224999999999999 Q 3.50251025390625 0.9974999999999998 3.41326025390625 1.041 Q 3.32401025390625 1.0844999999999998 3.20251025390625 1.0844999999999998 Q 3.01801025390625 1.0844999999999998 2.89951025390625 0.9967499999999998 M 4.6830029296875 0.016499999999999737 L 4.6830029296875 1.0739999999999998 L 4.3890029296875 1.0739999999999998 L 4.3890029296875 0.6494999999999999 L 4.0305029296875 0.6494999999999999 L 4.0305029296875 1.0739999999999998 L 3.7365029296875 1.0739999999999998 L 3.7365029296875 0.016499999999999737 L 4.0305029296875 0.016499999999999737 L 4.0305029296875 0.4139999999999998 L 4.3890029296875 0.4139999999999998 L 4.3890029296875 0.016499999999999737 L 4.6830029296875 0.016499999999999737 M 5.147974365234376 0.016499999999999737 L 5.147974365234376 1.0739999999999998 L 4.853974365234375 1.0739999999999998 L 4.853974365234375 0.016499999999999737 L 5.147974365234376 0.016499999999999737 M 6.298449462890626 1.0739999999999998 L 6.0044494628906255 1.0739999999999998 L 5.612949462890626 0.4829999999999999 L 5.612949462890626 1.0739999999999998 L 5.318949462890625 1.0739999999999998 L 5.318949462890625 0.016499999999999737 L 5.612949462890626 0.016499999999999737 L 6.0044494628906255 0.6149999999999998 L 6.0044494628906255 0.016499999999999737 L 6.298449462890626 0.016499999999999737 L 6.298449462890626 1.0739999999999998 M 6.703471435546875 1.0147499999999998 Q 6.578971435546876 0.9449999999999998 6.506221435546876 0.8212499999999998 Q 6.433471435546876 0.6974999999999998 6.433471435546876 0.5414999999999999 Q 6.433471435546876 0.38549999999999984 6.506221435546876 0.2617499999999998 Q 6.578971435546876 0.1379999999999998 6.703471435546875 0.06899999999999973 Q 6.827971435546876 -2.220446049250313e-16 6.976471435546876 -2.220446049250313e-16 Q 7.1264714355468755 -2.220446049250313e-16 7.250221435546876 0.06899999999999973 Q 7.373971435546876 0.1379999999999998 7.445971435546876 0.2617499999999998 Q 7.517971435546876 0.38549999999999984 7.517971435546876 0.5414999999999999 Q 7.517971435546876 0.6974999999999998 7.445971435546876 0.8212499999999998 Q 7.373971435546876 0.9449999999999998 7.249471435546876 1.0147499999999998 Q 7.124971435546875 1.0844999999999998 6.976471435546876 1.0844999999999998 Q 6.827971435546876 1.0844999999999998 6.703471435546875 1.0147499999999998 M 7.154221435546876 0.7379999999999998 Q 7.219471435546875 0.6644999999999999 7.219471435546875 0.5414999999999999 Q 7.219471435546875 0.41549999999999987 7.154221435546876 0.3427499999999998 Q 7.088971435546876 0.2699999999999998 6.976471435546876 0.2699999999999998 Q 6.862471435546876 0.2699999999999998 6.797971435546875 0.3427499999999998 Q 6.733471435546876 0.41549999999999987 6.733471435546876 0.5414999999999999 Q 6.733471435546876 0.6659999999999998 6.797971435546875 0.7387499999999998 Q 6.862471435546876 0.8114999999999999 6.976471435546876 0.8114999999999999 Q 7.088971435546876 0.8114999999999999 7.154221435546876 0.7379999999999998" fill="#ffffff" fill-rule="nonzero"></path></g><g></g></g><defs><clipPath id="SvgjsClipPath54798"><path d=" M 0.5068227083909074 -6.8022900433704345 h 6.552306975796309 v 6.5522900433704345 h -6.552306975796309 Z"></path></clipPath><clipPath id="SvgjsClipPath5479653bf073a-c742-41ec-86dd-d8589410cc55"><path d=" M 0.5068227083909074 -6.8022900433704345 L 7.059129684187217 -6.8022900433704345 L 7.059129684187217 -0.25 L 0.5068227083909074 -0.25 Z"></path></clipPath><linearGradient id="gradient-89c10f97-95af-4ed1-89f4-e35db5bf4d01_0" x1="0" x2="1" y1="0" y2="1"><stop stop-color="#3f7dde" offset="0"></stop><stop stop-color="#3e7ade" offset="1"></stop></linearGradient><linearGradient id="gradient-89c10f97-95af-4ed1-89f4-e35db5bf4d01_1" x1="0" x2="1" y1="0" y2="1"><stop stop-color="#4894dc" offset="0"></stop><stop stop-color="#4791dd" offset="1"></stop></linearGradient><linearGradient id="gradient-89c10f97-95af-4ed1-89f4-e35db5bf4d01_2" x1="0" x2="1" y1="0" y2="1"><stop stop-color="#3c78df" offset="0"></stop><stop stop-color="#3b75df" offset="1"></stop></linearGradient><linearGradient id="gradient-89c10f97-95af-4ed1-89f4-e35db5bf4d01_3" x1="0" x2="1" y1="0" y2="1"><stop stop-color="#4892dd" offset="0"></stop><stop stop-color="#478fdd" offset="1"></stop></linearGradient><linearGradient id="gradient-89c10f97-95af-4ed1-89f4-e35db5bf4d01_4" x1="0" x2="1" y1="0" y2="1"><stop stop-color="#4690dd" offset="0"></stop><stop stop-color="#458ddd" offset="1"></stop></linearGradient><linearGradient id="gradient-89c10f97-95af-4ed1-89f4-e35db5bf4d01_5" x1="0" x2="1" y1="0" y2="1"><stop stop-color="#468fdd" offset="0"></stop><stop stop-color="#458cdd" offset="1"></stop></linearGradient><linearGradient id="gradient-89c10f97-95af-4ed1-89f4-e35db5bf4d01_6" x1="0" x2="1" y1="0" y2="1"><stop stop-color="#51a8db" offset="0"></stop><stop stop-color="#3361e1" offset="1"></stop></linearGradient><linearGradient id="gradient-89c10f97-95af-4ed1-89f4-e35db5bf4d01_7" x1="0" x2="1" y1="0" y2="1"><stop stop-color="#3e7bde" offset="0"></stop><stop stop-color="#3d78df" offset="1"></stop></linearGradient><linearGradient id="gradient-89c10f97-95af-4ed1-89f4-e35db5bf4d01_8" x1="0" x2="1" y1="0" y2="1"><stop stop-color="#3d79df" offset="0"></stop><stop stop-color="#3c76df" offset="1"></stop></linearGradient><linearGradient id="gradient-89c10f97-95af-4ed1-89f4-e35db5bf4d01_9" x1="0" x2="1" y1="0" y2="1"><stop stop-color="#448add" offset="0"></stop><stop stop-color="#3f7ede" offset="1"></stop></linearGradient><linearGradient id="gradient-89c10f97-95af-4ed1-89f4-e35db5bf4d01_10" x1="0" x2="1" y1="0" y2="1"><stop stop-color="#458cdd" offset="0"></stop><stop stop-color="#3e7cde" offset="1"></stop></linearGradient></defs></svg>